<?xml version="1.0"?>
<svg xmlns="http://www.w3.org/2000/svg" xmlns:xlink="http://www.w3.org/1999/xlink" version="1.1" viewBox="0 0 224 224" width="100px" height="100px"><g fill="none" fill-rule="nonzero" stroke="none" stroke-width="1" stroke-linecap="butt" stroke-linejoin="miter" stroke-miterlimit="10" stroke-dasharray="" stroke-dashoffset="0" font-family="none" font-weight="none" font-size="none" text-anchor="none" style="mix-blend-mode: normal"><path d="M0,224v-224h224v224z" fill="none"/><g fill="#ffffff"><g id="surface1"><path d="M109.76,8.96c-5.0925,0 -9.7475,1.1725 -13.44,3.395c-3.675,2.24 -6.72,5.8975 -6.72,10.4825c0,0.1575 0.0175,0.2975 0.0175,0.455l5.3025,52.22c0.0175,0.1225 0.035,0.245 0.0525,0.3675c0.63,3.36 3.0275,5.6525 5.67,7.0875c2.625,1.4175 5.74,2.135 9.0825,2.1525h0.035c3.3425,-0.0175 6.4575,-0.7175 9.1,-2.1525c2.625,-1.4175 5.04,-3.71 5.67,-7.07c0.0175,-0.1225 0.035,-0.245 0.0525,-0.3675l5.32,-52.2375c0,-0.1575 0.0175,-0.2975 0.0175,-0.455c0,-4.585 -3.0275,-8.2425 -6.72,-10.4825c-3.71,-2.2225 -8.3475,-3.395 -13.44,-3.395zM109.76,17.92c3.64,0 6.8425,0.9275 8.8025,2.1175c1.9425,1.1725 2.38,2.205 2.38,2.7825l-5.2325,51.4325c0.0175,-0.175 -0.07,0.28 -1.12,0.84c-1.0675,0.5775 -2.835,1.0675 -4.8475,1.0675c-1.995,0 -3.7625,-0.49 -4.83,-1.0675c-1.05,-0.56 -1.155,-1.0325 -1.1025,-0.84l-5.2325,-51.4325c0,-0.5775 0.4375,-1.61 2.38,-2.7825c1.96,-1.19 5.145,-2.1175 8.8025,-2.1175zM38.955,49.2975c-0.525,-0.0175 -1.0675,-0.0175 -1.61,0.035c-2.1175,0.175 -4.2175,0.91 -6.09,1.9425c-3.745,2.0825 -7.0525,5.495 -9.59,9.8875c-2.52,4.375 -3.815,8.96 -3.745,13.2475c0.07,4.27 1.6975,8.715 5.6525,11.0075c0.1225,0.07 0.2625,0.14 0.4025,0.1925l47.3025,21.28c0.1225,0.0525 0.245,0.105 0.35,0.14c3.22,1.1375 6.3875,0.1925 8.925,-1.3825c2.45,-1.505 4.515,-3.78 6.16,-6.5275l0.035,0.0175v-0.0175l-0.035,-0.0175c0.0525,-0.0875 0.14,-0.1225 0.1925,-0.21h0.0175c0.3325,-0.595 0.525,-1.26 0.5775,-1.9425c1.0325,-2.31 2.0125,-4.655 2.1,-6.9825c0.0875,-2.975 -0.6825,-6.1775 -3.255,-8.4175c-0.105,-0.07 -0.1925,-0.1575 -0.315,-0.2275l-42.035,-30.415c-0.1225,-0.0875 -0.245,-0.175 -0.385,-0.245c-1.47,-0.8575 -3.0625,-1.2775 -4.655,-1.365zM180.5475,49.2975c-1.5925,0.0875 -3.1675,0.5075 -4.6375,1.365c-0.14,0.07 -0.2625,0.1575 -0.4025,0.245l-42.0175,30.415c-0.1225,0.07 -0.2275,0.1575 -0.3325,0.245c-2.5725,2.2225 -3.325,5.4425 -3.2375,8.4175c0.0875,2.3275 1.0675,4.655 2.1,6.9475c0.0525,0.595 0.1925,1.1725 0.4725,1.715v0.0175l0.035,-0.035c0.0525,0.0875 0.035,0.175 0.0875,0.2625c1.6625,2.8875 3.815,5.1975 6.3525,6.755c2.5375,1.575 5.705,2.52 8.925,1.3825c0.1225,-0.035 0.2275,-0.0875 0.35,-0.14l47.285,-21.28c0.1575,-0.0525 0.28,-0.1225 0.42,-0.1925c3.955,-2.2925 5.5825,-6.7375 5.6525,-11.0075c0.07,-4.2875 -1.225,-8.8725 -3.745,-13.2475c-2.52,-4.3925 -5.845,-7.805 -9.59,-9.8875c-1.8725,-1.0325 -3.9725,-1.7675 -6.1075,-1.9425c-0.525,-0.0525 -1.0675,-0.0525 -1.61,-0.035zM37.905,58.2575c0.5775,-0.07 0.9625,0.035 1.19,0.175l41.3875,29.925c-0.175,-0.14 0.1925,0.1575 0.1575,1.3475c-0.035,1.19 -0.49,2.975 -1.4875,4.7075c0,0 0,0 0,0.0175c-0.9975,1.6975 -2.2925,2.975 -3.3075,3.605c-0.9975,0.6125 -1.435,0.4725 -1.225,0.5425l-46.585,-20.9475c-0.455,-0.28 -1.12,-1.1375 -1.155,-3.3775c-0.035,-2.275 0.735,-5.495 2.555,-8.61c1.8025,-3.15 4.1825,-5.4425 6.16,-6.545c0.9975,-0.5425 1.75,-0.77 2.31,-0.84zM181.5975,58.2575c0.5775,0.07 1.33,0.2975 2.31,0.84c1.9775,1.1025 4.375,3.395 6.1775,6.545c1.8025,3.1325 2.59,6.335 2.555,8.61c-0.035,2.24 -0.7175,3.0975 -1.1725,3.3775l-46.5675,20.9475c0.21,-0.07 -0.21,0.07 -1.2075,-0.5425c-1.0325,-0.63 -2.3275,-1.9075 -3.325,-3.6225c-0.98,-1.7325 -1.4525,-3.5175 -1.4875,-4.7075c-0.035,-1.1725 0.315,-1.4875 0.1575,-1.3475l41.37,-29.925c0.2275,-0.1225 0.6125,-0.245 1.19,-0.175zM79.66,94.71l3.3775,1.96l3.395,2.2575zM139.93,94.955l-6.9475,3.7275l3.4825,-2.0125zM74.025,116.48c-0.7875,0.0525 -1.5925,0.1925 -2.3975,0.49c-0.1225,0.035 -0.2275,0.0875 -0.35,0.14l-47.3025,21.28c-0.14,0.0525 -0.2625,0.1225 -0.4025,0.1925c-3.955,2.2925 -5.5825,6.7375 -5.6525,11.0075c-0.07,4.2875 1.225,8.8725 3.745,13.2475c2.52,4.3925 5.845,7.805 9.59,9.8875c3.745,2.0825 8.4,2.905 12.355,0.6125c0.14,-0.07 0.2625,-0.1575 0.385,-0.245l42.035,-30.415c0.1225,-0.07 0.2275,-0.1575 0.3325,-0.245c2.5725,-2.2225 3.325,-5.4425 3.2375,-8.4175c-0.0875,-2.3275 -1.0675,-4.655 -2.1,-6.9475c-0.0525,-0.595 -0.1925,-1.1725 -0.4725,-1.715v-0.0175l-0.035,0.035c-0.0525,-0.0875 -0.035,-0.175 -0.0875,-0.2625c-1.6625,-2.8875 -3.815,-5.1975 -6.3525,-6.755c-1.26,-0.7875 -2.695,-1.4175 -4.2,-1.715c-0.7525,-0.14 -1.54,-0.21 -2.3275,-0.1575zM145.4775,116.48c-0.7875,-0.0525 -1.5575,0.0175 -2.31,0.1575c-1.505,0.2975 -2.94,0.9275 -4.2,1.715c-2.45,1.505 -4.515,3.78 -6.16,6.5275l-0.035,-0.0175v0.0175l0.035,0.0175c-0.0525,0.0875 -0.14,0.1225 -0.1925,0.21h-0.0175c-0.3325,0.595 -0.525,1.26 -0.5775,1.9425c-1.0325,2.31 -2.0125,4.655 -2.1,6.9825c-0.0875,2.975 0.6825,6.1775 3.255,8.4175c0.105,0.07 0.1925,0.1575 0.315,0.2275l42.035,30.415c0.1225,0.0875 0.245,0.175 0.385,0.245c3.955,2.2925 8.61,1.47 12.355,-0.6125c3.745,-2.0825 7.0525,-5.495 9.59,-9.8875c2.52,-4.375 3.815,-8.96 3.745,-13.2475c-0.07,-4.27 -1.6975,-8.715 -5.6525,-11.0075c-0.1225,-0.07 -0.2625,-0.14 -0.4025,-0.1925l-47.3025,-21.28c-0.1225,-0.0525 -0.245,-0.105 -0.35,-0.14c-0.805,-0.2975 -1.61,-0.4375 -2.415,-0.49zM133.0875,125.0725l6.7725,4.2175l-3.3775,-1.96zM86.5375,125.3175l-3.4825,2.0125l-3.465,1.715zM74.62,125.4225c-0.21,0.07 0.21,-0.07 1.2075,0.5425c1.0325,0.63 2.3275,1.9075 3.325,3.6225c0.98,1.7325 1.4525,3.5175 1.4875,4.7075c0.035,1.1725 -0.315,1.4875 -0.1575,1.3475l-41.37,29.925c-0.4725,0.2625 -1.54,0.42 -3.5,-0.665c-1.9775,-1.1025 -4.375,-3.395 -6.1775,-6.545c-1.8025,-3.1325 -2.59,-6.335 -2.555,-8.61c0.035,-2.24 0.7175,-3.0975 1.1725,-3.3775zM144.9,125.4225l46.5675,20.9475c0.4725,0.28 1.1375,1.1375 1.1725,3.3775c0.035,2.275 -0.735,5.495 -2.5375,8.61c-1.82,3.15 -4.2,5.4425 -6.195,6.545c-1.96,1.085 -3.0275,0.9275 -3.5,0.665l-41.37,-29.925c0.175,0.14 -0.1925,-0.1575 -0.1575,-1.3475c0.035,-1.19 0.49,-2.975 1.4875,-4.7075v-0.0175c0.9975,-1.6975 2.2925,-2.975 3.3075,-3.605c0.9975,-0.6125 1.435,-0.4725 1.225,-0.5425zM109.76,138.88c-0.6475,0.0175 -1.295,0.1575 -1.89,0.4375c-2.555,0.245 -5.11,0.5775 -7.21,1.715c-2.625,1.4175 -5.04,3.71 -5.67,7.07c-0.0175,0.1225 -0.035,0.245 -0.0525,0.3675l-5.32,52.2375c0,0.1575 -0.0175,0.2975 -0.0175,0.455c0,4.585 3.0275,8.2425 6.72,10.465c3.71,2.24 8.3475,3.4125 13.44,3.4125c5.0925,0 9.7475,-1.1725 13.44,-3.4125c3.675,-2.2225 6.72,-5.88 6.72,-10.465c0,-0.1575 -0.0175,-0.2975 -0.0175,-0.455l-5.3025,-52.22c-0.0175,-0.1225 -0.035,-0.245 -0.0525,-0.3675c-0.63,-3.36 -3.0275,-5.6525 -5.67,-7.0875c-2.625,-1.4175 -5.74,-2.135 -9.0825,-2.1525zM109.7775,147.84c1.995,0 3.7625,0.49 4.83,1.0675c1.05,0.56 1.155,1.0325 1.1025,0.84l5.2325,51.4325c0,0.5775 -0.4375,1.61 -2.38,2.7825c-1.96,1.19 -5.145,2.1175 -8.8025,2.1175c-3.64,0 -6.8425,-0.9275 -8.8025,-2.1175c-1.9425,-1.1725 -2.38,-2.205 -2.38,-2.7825l5.2325,-51.4325c-0.0175,0.175 0.07,-0.28 1.12,-0.84c1.0675,-0.5775 2.835,-1.0675 4.8475,-1.0675z"/></g></g></g></svg>
